# xmcd CD database file
#
# Track frame offsets:
#	150
#	17259
#	37691
#	56446
#	75173
#	94261
#	115777
#	133472
#	149966
#	168078
#	185132
#	201914
#	217219
#	236127
#
# Disc length: 3421 seconds
#
# Revision: 0
# Processed by: cddbd v1.5.2PL0 Copyright (c) Steve Scherf et al.
# Submitted via: CDex 1.50beta10
#
DISCID=c70d5b0e
DTITLE=MALAVOI - Premiers enregistrements (1969)
DYEAR=2007
DGENRE=Rhythmic Soul
TTITLE0=Nou pépa kimbé
TTITLE1=Parole pé pa soulagé moin
TTITLE2=Jojo
TTITLE3=Couté biguine la
TTITLE4=Non pa fè sa albè
TTITLE5=Coupé cann'
TTITLE6=Baye la voix
TTITLE7=Michèle
TTITLE8=Désillusion
TTITLE9=Ginette demarré moin
TTITLE10=Paulain
TTITLE11=Ti nain l'en morue
TTITLE12=Ralésen' la
TTITLE13=Gadé manzel'
EXTD=YEAR: 2007
EXTT0=
EXTT1=
EXTT2=
EXTT3=
EXTT4=
EXTT5=
EXTT6=
EXTT7=
EXTT8=
EXTT9=
EXTT10=
EXTT11=
EXTT12=
EXTT13=
PLAYORDER=
